# xmcd
#
# Track frame offsets:
#  150
#  27211
#  47172
#  63134
#  75596
#  85976
#  96608
#  111944
#  157484
#  179778
#  192217
#  209159
#  218698
#  228156
#  242430
#  253018
#
# Disc length: 3507 seconds
#
# Revision: 0
# Processed by: cddbd v1.5.1PL2 Copyright (c) Steve Scherf et al.
# Submitted via: Collectorz.com_Music_Collector 6.9
#
DISCID=e60db110
DTITLE=Various Artist - Soul Train [CD4]
DYEAR=1900
DGENRE=Soul
TTITLE0=Rufus Thomas - Walking The Dog
TTITLE1=The Tams - To Love Somebody
TTITLE2=Clarence Carter - Lovely Day
TTITLE3=Mary Wells - You Beat Me To The Punch
TTITLE4=The Drifters - Save The Last Dance For Me
TTITLE5=Brook Benton - Thank You Pretty Baby
TTITLE6=Percy Sledge - Out Of Left Field
TTITLE7=Marvin Gaye - Sexual Healing
TTITLE8=George Williams - You'll Never Find Another Love Like Mine
TTITLE9=The Platters - Twilight Time
TTITLE10=Al Jarreau - Kissing My Love
TTITLE11=Sly and The Family Stone - Every Dogs Has His Day
TTITLE12=Ike Turner - Tina Turner - Ain't Nobody's Business
TTITLE13=Al Wilson - Touch And Go
TTITLE14=The Whispers - Needle In A Haystack
TTITLE15=Little Anthony and the Imperials - Tears On My Pillow
EXTD=
EXTT0=
EXTT1=
EXTT2=
EXTT3=
EXTT4=
EXTT5=
EXTT6=
EXTT7=
EXTT8=
EXTT9=
EXTT10=
EXTT11=
EXTT12=
EXTT13=
EXTT14=
EXTT15=
PLAYORDER=
